<mxfile host="app.diagrams.net" modified="2023-11-26T04:14:59.715Z" agent="Mozilla/5.0 (Windows NT 10.0; Win64; x64) AppleWebKit/537.36 (KHTML, like Gecko) Chrome/119.0.0.0 Safari/537.36" etag="76vmrxNndZqybGhbdluU" version="22.1.4" type="device">
  <diagram name="PÃ¡gina-1" id="Lj2UYol1K-0v7_I4twlo">
    <mxGraphModel dx="1750" dy="942" grid="1" gridSize="10" guides="1" tooltips="1" connect="1" arrows="1" fold="1" page="1" pageScale="1" pageWidth="1169" pageHeight="827" math="0" shadow="0">
      <root>
        <mxCell id="0" />
        <mxCell id="1" parent="0" />
        <mxCell id="hJBQMCmi2Zm9q_jRJUEM-12" value="Frontend" style="swimlane;horizontal=0;whiteSpace=wrap;html=1;" vertex="1" parent="1">
          <mxGeometry x="60" y="100" width="1050" height="200" as="geometry" />
        </mxCell>
        <mxCell id="rkyuR8n9D_zRhjpiwg3G-8" value="" style="shape=image;verticalLabelPosition=bottom;labelBackgroundColor=default;verticalAlign=top;aspect=fixed;imageAspect=0;image=https://web-strapi.mrmilu.com/uploads/flutter_logo_470e9f7491.png;" parent="hJBQMCmi2Zm9q_jRJUEM-12" vertex="1">
          <mxGeometry x="500.0049999999999" y="20" width="139.39" height="139.39" as="geometry" />
        </mxCell>
        <mxCell id="hJBQMCmi2Zm9q_jRJUEM-13" value="Middlend" style="swimlane;horizontal=0;whiteSpace=wrap;html=1;" vertex="1" parent="1">
          <mxGeometry x="60" y="300" width="1050" height="200" as="geometry" />
        </mxCell>
        <mxCell id="rkyuR8n9D_zRhjpiwg3G-11" value="" style="shape=image;verticalLabelPosition=bottom;labelBackgroundColor=default;verticalAlign=top;aspect=fixed;imageAspect=0;image=https://cdn-icons-png.flaticon.com/512/5968/5968322.png;" parent="hJBQMCmi2Zm9q_jRJUEM-13" vertex="1">
          <mxGeometry x="499.99999999999994" y="34" width="132" height="132" as="geometry" />
        </mxCell>
        <mxCell id="hJBQMCmi2Zm9q_jRJUEM-16" value="Backend" style="swimlane;horizontal=0;whiteSpace=wrap;html=1;" vertex="1" parent="1">
          <mxGeometry x="60" y="498.69" width="1050" height="200" as="geometry" />
        </mxCell>
        <mxCell id="rkyuR8n9D_zRhjpiwg3G-6" value="" style="shape=image;verticalLabelPosition=bottom;labelBackgroundColor=default;verticalAlign=top;aspect=fixed;imageAspect=0;image=https://dz2cdn1.dzone.com/storage/temp/12434118-spring-boot-logo.png;" parent="hJBQMCmi2Zm9q_jRJUEM-16" vertex="1">
          <mxGeometry x="333.6" y="35.31" width="157.4" height="141.22" as="geometry" />
        </mxCell>
        <mxCell id="rkyuR8n9D_zRhjpiwg3G-10" value="" style="shape=image;verticalLabelPosition=bottom;labelBackgroundColor=default;verticalAlign=top;aspect=fixed;imageAspect=0;image=https://cdn4.iconfinder.com/data/icons/logos-and-brands/512/181_Java_logo_logos-512.png;" parent="hJBQMCmi2Zm9q_jRJUEM-16" vertex="1">
          <mxGeometry x="581.7" y="26.694999999999993" width="146.61" height="146.61" as="geometry" />
        </mxCell>
        <mxCell id="hJBQMCmi2Zm9q_jRJUEM-17" value="Persistency" style="swimlane;horizontal=0;whiteSpace=wrap;html=1;" vertex="1" parent="1">
          <mxGeometry x="60" y="898.69" width="1050" height="200" as="geometry" />
        </mxCell>
        <mxCell id="rkyuR8n9D_zRhjpiwg3G-14" value="" style="shape=image;verticalLabelPosition=bottom;labelBackgroundColor=default;verticalAlign=top;aspect=fixed;imageAspect=0;image=https://upload.wikimedia.org/wikipedia/commons/thumb/2/29/Postgresql_elephant.svg/1200px-Postgresql_elephant.svg.png;" parent="hJBQMCmi2Zm9q_jRJUEM-17" vertex="1">
          <mxGeometry x="802.51" y="30.039999999999964" width="138.51" height="142.92" as="geometry" />
        </mxCell>
        <mxCell id="rkyuR8n9D_zRhjpiwg3G-15" value="" style="shape=image;verticalLabelPosition=bottom;labelBackgroundColor=default;verticalAlign=top;aspect=fixed;imageAspect=0;image=https://upload.wikimedia.org/wikipedia/commons/thumb/5/5e/Cassandra_logo.svg/2560px-Cassandra_logo.svg.png;clipPath=inset(3.23% 0% 25.12% 0%);" parent="hJBQMCmi2Zm9q_jRJUEM-17" vertex="1">
          <mxGeometry x="129" y="65.5" width="150" height="72" as="geometry" />
        </mxCell>
        <mxCell id="hJBQMCmi2Zm9q_jRJUEM-1" value="" style="shape=image;verticalLabelPosition=bottom;labelBackgroundColor=default;verticalAlign=top;aspect=fixed;imageAspect=0;image=https://upload.wikimedia.org/wikipedia/commons/thumb/0/05/Apache_kafka.svg/1261px-Apache_kafka.svg.png;" vertex="1" parent="hJBQMCmi2Zm9q_jRJUEM-17">
          <mxGeometry x="360" y="11.5" width="109" height="177" as="geometry" />
        </mxCell>
        <mxCell id="rkyuR8n9D_zRhjpiwg3G-13" value="" style="shape=image;verticalLabelPosition=bottom;labelBackgroundColor=default;verticalAlign=top;aspect=fixed;imageAspect=0;image=https://www.stackery.io/assets/images/posts/redis-cache-cluster-support/featured.svg;" parent="hJBQMCmi2Zm9q_jRJUEM-17" vertex="1">
          <mxGeometry x="570" y="18.37999999999988" width="190" height="163.24" as="geometry" />
        </mxCell>
        <mxCell id="hJBQMCmi2Zm9q_jRJUEM-18" value="BackOffice" style="swimlane;horizontal=0;whiteSpace=wrap;html=1;" vertex="1" parent="1">
          <mxGeometry x="60" y="698.69" width="1050" height="200" as="geometry" />
        </mxCell>
        <mxCell id="hJBQMCmi2Zm9q_jRJUEM-10" value="" style="shape=image;verticalLabelPosition=bottom;labelBackgroundColor=default;verticalAlign=top;aspect=fixed;imageAspect=0;image=https://seeklogo.com/images/K/kibana-logo-3CB40921E7-seeklogo.com.png;" vertex="1" parent="hJBQMCmi2Zm9q_jRJUEM-18">
          <mxGeometry x="650" y="29.639999999999976" width="106" height="140.71" as="geometry" />
        </mxCell>
        <mxCell id="hJBQMCmi2Zm9q_jRJUEM-8" value="" style="shape=image;verticalLabelPosition=bottom;labelBackgroundColor=default;verticalAlign=top;aspect=fixed;imageAspect=0;image=https://cdn.icon-icons.com/icons2/2699/PNG/512/grafana_logo_icon_171048.png;" vertex="1" parent="hJBQMCmi2Zm9q_jRJUEM-18">
          <mxGeometry x="450" y="35.01000000000003" width="130" height="130" as="geometry" />
        </mxCell>
        <mxCell id="hJBQMCmi2Zm9q_jRJUEM-6" value="" style="shape=image;verticalLabelPosition=bottom;labelBackgroundColor=default;verticalAlign=top;aspect=fixed;imageAspect=0;image=https://www.svgrepo.com/show/373924/nginx.svg;" vertex="1" parent="hJBQMCmi2Zm9q_jRJUEM-18">
          <mxGeometry x="59.99999999999997" y="29.65000000000009" width="130" height="130" as="geometry" />
        </mxCell>
        <mxCell id="hJBQMCmi2Zm9q_jRJUEM-7" value="" style="shape=image;verticalLabelPosition=bottom;labelBackgroundColor=default;verticalAlign=top;aspect=fixed;imageAspect=0;image=https://upload.wikimedia.org/wikipedia/commons/thumb/3/38/Prometheus_software_logo.svg/2066px-Prometheus_software_logo.svg.png;" vertex="1" parent="hJBQMCmi2Zm9q_jRJUEM-18">
          <mxGeometry x="270" y="40.5" width="120" height="119" as="geometry" />
        </mxCell>
        <mxCell id="hJBQMCmi2Zm9q_jRJUEM-34" value="" style="shape=image;verticalLabelPosition=bottom;labelBackgroundColor=default;verticalAlign=top;aspect=fixed;imageAspect=0;image=https://www.stonebranch.com/integration-hub/media/d5/72/11/1642677735/Oauth%202.0_Vendor_Product_Logo.svg;clipPath=inset(18% 27.67% 15% 28%);" vertex="1" parent="hJBQMCmi2Zm9q_jRJUEM-18">
          <mxGeometry x="840" y="29.649999999999977" width="148.88" height="150" as="geometry" />
        </mxCell>
        <mxCell id="hJBQMCmi2Zm9q_jRJUEM-19" value="Virtualization" style="swimlane;horizontal=0;whiteSpace=wrap;html=1;" vertex="1" parent="1">
          <mxGeometry x="60" y="1098.5" width="1050" height="212" as="geometry" />
        </mxCell>
        <mxCell id="hJBQMCmi2Zm9q_jRJUEM-4" value="" style="shape=image;verticalLabelPosition=bottom;labelBackgroundColor=default;verticalAlign=top;aspect=fixed;imageAspect=0;image=https://gitlab.developers.cam.ac.uk/uploads/-/system/project/avatar/4542/compose.png;" vertex="1" parent="hJBQMCmi2Zm9q_jRJUEM-19">
          <mxGeometry x="800.59" y="3.169999999999959" width="140.43" height="178" as="geometry" />
        </mxCell>
        <mxCell id="hJBQMCmi2Zm9q_jRJUEM-3" value="" style="shape=image;verticalLabelPosition=bottom;labelBackgroundColor=default;verticalAlign=top;aspect=fixed;imageAspect=0;image=https://upload.wikimedia.org/wikipedia/commons/thumb/3/39/Kubernetes_logo_without_workmark.svg/2109px-Kubernetes_logo_without_workmark.svg.png;" vertex="1" parent="hJBQMCmi2Zm9q_jRJUEM-19">
          <mxGeometry x="575" y="25.839999999999918" width="160" height="155.33" as="geometry" />
        </mxCell>
        <mxCell id="hJBQMCmi2Zm9q_jRJUEM-2" value="" style="shape=image;verticalLabelPosition=bottom;labelBackgroundColor=default;verticalAlign=top;aspect=fixed;imageAspect=0;image=https://cdn4.iconfinder.com/data/icons/logos-and-brands/512/97_Docker_logo_logos-512.png;" vertex="1" parent="hJBQMCmi2Zm9q_jRJUEM-19">
          <mxGeometry x="50" width="212" height="212" as="geometry" />
        </mxCell>
        <mxCell id="hJBQMCmi2Zm9q_jRJUEM-5" value="" style="shape=image;verticalLabelPosition=bottom;labelBackgroundColor=default;verticalAlign=top;aspect=fixed;imageAspect=0;image=https://kompose.io/assets/images/logo.png;" vertex="1" parent="hJBQMCmi2Zm9q_jRJUEM-19">
          <mxGeometry x="300" y="21" width="170" height="170" as="geometry" />
        </mxCell>
        <mxCell id="hJBQMCmi2Zm9q_jRJUEM-23" value="OS" style="swimlane;horizontal=0;whiteSpace=wrap;html=1;" vertex="1" parent="1">
          <mxGeometry x="60" y="1298.5" width="1050" height="200" as="geometry" />
        </mxCell>
        <mxCell id="hJBQMCmi2Zm9q_jRJUEM-24" value="" style="shape=image;verticalLabelPosition=bottom;labelBackgroundColor=default;verticalAlign=top;aspect=fixed;imageAspect=0;image=https://upload.wikimedia.org/wikipedia/commons/thumb/f/f1/Icons8_flat_linux.svg/2048px-Icons8_flat_linux.svg.png;" vertex="1" parent="1">
          <mxGeometry x="267.5" y="1279" width="249.9" height="244.9" as="geometry" />
        </mxCell>
        <mxCell id="hJBQMCmi2Zm9q_jRJUEM-30" value="" style="shape=image;verticalLabelPosition=bottom;labelBackgroundColor=default;verticalAlign=top;aspect=fixed;imageAspect=0;image=https://cdn-icons-png.flaticon.com/512/25/25231.png;" vertex="1" parent="1">
          <mxGeometry x="750" y="1320" width="160" height="160" as="geometry" />
        </mxCell>
        <mxCell id="hJBQMCmi2Zm9q_jRJUEM-33" value="" style="shape=image;verticalLabelPosition=bottom;labelBackgroundColor=default;verticalAlign=top;aspect=fixed;imageAspect=0;image=https://avatars.githubusercontent.com/u/44036562?s=200&amp;v=4.jpg;" vertex="1" parent="1">
          <mxGeometry x="520.69" y="1320" width="162" height="162" as="geometry" />
        </mxCell>
      </root>
    </mxGraphModel>
  </diagram>
</mxfile>
